<svg xmlns:xlink="http://www.w3.org/1999/xlink" xmlns="http://www.w3.org/2000/svg" class="icon icon-item__icon icon--blue" width="512"  height="512" ><defs><symbol viewBox="0 0 512 512" id="charity" xmlns="http://www.w3.org/2000/svg"><path d="M511.833 310.027c-8.158-38.269-45.677-65.235-86.638-57.957 10.639-123.887-86.883-231.318-212.203-231.318h-.024l-.029.001C94.34 20.783 0 117.275 0 233.744 0 354.22 98.509 446.943 213.073 446.943c22.075 0 44.019-3.522 65.576-10.536 19.43 20.469 43.935 38.917 71.778 53.909a7.521 7.521 0 0010.189-3.057 7.521 7.521 0 00-3.057-10.189c-98.571-53.076-125.017-132.852-108.589-173.626 18.607-46.07 82.568-50.594 107.262-7.141 1.376 2.421 7.796 8.56 15.846 8.383 6.247-.146 12.028-4.11 15.077-9.002 31.133-49.96 99.33-32.402 109.965 17.481a7.518 7.518 0 008.925 5.788 7.522 7.522 0 005.788-8.926zM162.425 42.355c-22.262 20.549-37.029 50.349-46.474 79.023-18.425-5.258-35.275-12.033-49.856-20.172 26.902-29.675 60.302-49.281 96.33-58.851zM56.303 112.931c16.08 9.278 34.798 16.957 55.322 22.828-8.072 29.433-11.922 60.32-12.472 90.463H15.202c1.532-40.865 15.561-80.232 41.101-113.291zm-.207 241.746c-25.017-32.159-39.367-71.359-40.899-113.411h83.956c.546 30.053 4.257 60.998 12.401 90.484-20.583 5.894-39.35 13.606-55.458 22.927zm9.911 11.652c14.598-8.16 31.475-14.95 49.931-20.217 9.481 28.467 24.256 58.54 46.219 78.774-37.417-9.97-70.723-30.414-96.15-58.557zm139.463 64.649c-36.885-6.393-62.719-52.612-74.917-88.641 23.308-5.413 48.683-8.516 74.917-9.016v97.657zm0-112.701c-27.715.512-54.584 3.842-79.301 9.668-7.279-26.463-11.392-55.947-11.97-86.678h91.271v77.01zm0-92.055h-91.271c.548-29.094 4.286-58.741 11.97-86.678 24.718 5.825 51.588 9.156 79.301 9.667v77.011zm0-92.057c-26.236-.499-51.614-3.604-74.923-9.016 12.129-36.335 37.274-82.924 74.923-88.763v97.779zm154.421-32.959c-14.581 8.14-31.43 14.915-49.856 20.172-9.346-28.376-24.45-58.872-46.477-79.024 36.483 9.632 69.992 29.769 96.333 58.852zm-139.376-64.82c37.773 5.858 62.794 52.424 74.923 88.762-23.31 5.414-48.687 8.518-74.923 9.017V36.386zm36.814 373.798c-11.743 12.055-24.164 19.093-36.813 20.979v-97.839c3.111.06 6.226.148 9.334.282 1.616 27.908 11.689 53.506 27.479 76.578zm54.139-158.792c-41.192-4-77.628 26.35-81.513 67.17-3.144-.13-6.294-.227-9.441-.285v-77.011h91.264a386.803 386.803 0 01-.31 10.126zm-90.953-25.17v-77.011c27.714-.511 54.584-3.842 79.301-9.667 7.279 26.463 11.392 55.947 11.97 86.678h-91.271zm189.096 30.461c-23.949 10.169-34.499 30.393-35.484 31.426-1.808 1.894-2.863 2.147-5.317-.131l-.024-.021c-9.286-15.833-24.084-27.996-42.402-33.598.22-4.346.368-8.719.448-13.092h83.946a200.988 200.988 0 01-1.167 15.416zm-82.78-30.461c-.583-31.975-4.869-62.741-12.472-90.463 20.523-5.871 39.241-13.55 55.322-22.828 25.222 32.632 39.548 71.881 41.102 113.291h-83.952zm178.644 113.05c-4.098-.657-7.961 2.129-8.622 6.23-11.221 69.69-81.629 115.269-111.381 131.631a7.523 7.523 0 007.249 13.183c55.891-30.738 108.926-79.956 118.984-142.421a7.522 7.522 0 00-6.23-8.623z"></path></symbol></defs>
											<use xlink:href="#charity" fill="#8BBDE8"></use>
										</svg>