<svg xmlns:xlink="http://www.w3.org/1999/xlink" xmlns="http://www.w3.org/2000/svg" class="icon icon-item__icon icon--orange" width="511.998"  height="511.998" ><defs><symbol viewBox="0 0 511.998 511.998" id="church" xmlns="http://www.w3.org/2000/svg"><path d="M443.726 325.008l-88.417-69.347v-33.14c0-4.143-3.357-7.5-7.5-7.5s-7.5 3.357-7.5 7.5v21.374l-79.68-62.494a7.504 7.504 0 00-9.259 0l-79.68 62.494v-89.068L255.998 88.7l84.309 66.125v32.692c0 4.143 3.357 7.5 7.5 7.5s7.5-3.357 7.5-7.5V166.59l13.309 10.439a7.502 7.502 0 009.259-11.803L263.499 75.521V43.999h21.381c4.143 0 7.5-3.357 7.5-7.5s-3.357-7.5-7.5-7.5h-21.381V7.5c0-4.143-3.357-7.5-7.5-7.5a7.499 7.499 0 00-7.5 7.5v21.496h-21.381c-4.143 0-7.5 3.357-7.5 7.5s3.357 7.5 7.5 7.5h21.381V75.52l-114.375 89.706a7.5 7.5 0 009.259 11.803l13.308-10.438v89.068l-88.417 69.347a7.5 7.5 0 009.259 11.803l30.124-23.626v183.814H76.078a7.499 7.499 0 00-7.5 7.5c0 4.143 3.357 7.5 7.5 7.5H435.92c4.143 0 7.5-3.357 7.5-7.5s-3.357-7.5-7.5-7.5h-31.576V313.185l30.124 23.626a7.502 7.502 0 0010.531-1.272 7.502 7.502 0 00-1.273-10.531zM248.498 496.999h-43.629V378.22c0-18.035 14.673-32.708 32.708-32.708h10.921v151.487zm140.845-.001h-67.214v-67.13c0-4.143-3.357-7.5-7.5-7.5s-7.5 3.357-7.5 7.5v67.131H263.5V345.511h10.921c18.035 0 32.708 14.673 32.708 32.709v16.646c0 4.143 3.357 7.5 7.5 7.5s7.5-3.357 7.5-7.5V378.22c0-26.308-21.401-47.71-47.709-47.71h-36.842c-26.31 0-47.709 21.405-47.709 47.71v118.778h-67.214V301.419l133.344-104.584 133.344 104.584v195.579z"></path><path d="M270.885 121.611h-29.773c-4.143 0-7.5 3.357-7.5 7.5s3.357 7.5 7.5 7.5h29.773c4.143 0 7.5-3.357 7.5-7.5s-3.356-7.5-7.5-7.5zm0 27.814h-29.773a7.499 7.499 0 00-7.5 7.5c0 4.143 3.357 7.5 7.5 7.5h29.773c4.143 0 7.5-3.357 7.5-7.5a7.498 7.498 0 00-7.5-7.5zm0 111.651h-29.773a7.499 7.499 0 00-7.5 7.5c0 4.143 3.357 7.5 7.5 7.5h29.773c4.143 0 7.5-3.357 7.5-7.5a7.498 7.498 0 00-7.5-7.5zm0 27.812h-29.773a7.499 7.499 0 00-7.5 7.5c0 4.143 3.357 7.5 7.5 7.5h29.773c4.143 0 7.5-3.357 7.5-7.5a7.498 7.498 0 00-7.5-7.5z"></path></symbol></defs>
											<use xlink:href="#church" fill="#FEB248"></use>
										</svg>