<svg xmlns:xlink="http://www.w3.org/1999/xlink" xmlns="http://www.w3.org/2000/svg" class="icon icon-item__icon icon--red" width="512"  height="512" ><defs><symbol viewBox="0 0 512 512" id="donation" xmlns="http://www.w3.org/2000/svg"><path d="M249.391 480.848l-5.955-81.261c-.644-8.765-8.267-15.274-16.937-14.626l-4.06.298c-1.684-16.72-4.663-33.083-8.881-48.743-5.795-21.513-11.132-28.631-35.39-58.71l-.091-.111c-9.117-10.87-16.034-13.592-63.355-40.001-10.804-6.03-20.514-4.362-27.552-.111l-.951-2.285a28.116 28.116 0 001.465-7.138l4.32-59.924c1.125-15.605-10.594-29.147-26.202-30.272-8.141-.594-15.872 2.306-21.525 7.704-17.838-13.303-50.332-.331-43.294 33.012.068.325 32.147 118.269 32.234 118.588 4.603 21.37 20.138 33.048 26.62 37.084.805.499 17.8 9.877 18.63 10.335 25.706 14.18 27.804 15.34 34.941 24.697 6.853 8.987 6.83 17.261 7.275 23.332l-3.786.278c-8.702.639-15.262 8.236-14.623 16.936l5.357 73.138c.61 8.334 7.635 14.862 15.991 14.862h109.893c9.24 0 16.551-7.865 15.876-17.082zM77.051 167.156l-2.834 39.302c-20.513-49.296-18.527-45.451-20.4-49.113 8.282-9.374 24.156-2.983 23.234 9.811zm-9.44 154.378c-11.585-7.277-16.527-15.939-19.88-28.012L15.607 175.388c-.62-3.095-2.482-16.157 9.303-19.475 6.087-1.42 10.482.561 13.937 5.552 1.548 2.237-2.11-6.058 37.249 88.526-3.5 7.964-3.862 19.859 7.323 28.337 12.099 9.172 40.842 31.136 41.131 31.357a7.455 7.455 0 004.545 1.54 7.494 7.494 0 004.557-13.45c-.289-.222-29.054-22.203-41.178-31.393-7.136-5.408-2.456-13.048 2.76-16.16 3.688-2.196 7.558-2.02 12.183.562 46.012 25.678 52.068 28.089 59.133 36.492 24.266 30.094 27.651 35.01 32.535 53.141 3.974 14.75 6.793 30.168 8.402 45.94l-71.854 5.264c-.452-6.156-.485-18.448-10.306-31.327-10.733-14.071-14.383-14.588-57.716-38.76zm166.583 161.107a.896.896 0 01-.681.297H123.62a1.048 1.048 0 01-1.042-.967l-5.357-73.138a.837.837 0 01.771-.892 4085734.798 4085734.798 0 00109.67-8.032c.201 0 .383.068.539.203.174.149.27.342.287.57l5.953 81.259a.904.904 0 01-.247.7zm233.527-336.977c-18.673-17.826-49.575-3.071-47.727 22.57l4.32 59.923a28.071 28.071 0 001.465 7.139l-.951 2.285c-7.037-4.251-16.753-5.918-27.552.111-47.382 26.436-54.259 29.154-63.356 40a9.062 9.062 0 00-.092.112c-24.257 30.081-29.593 37.197-35.388 58.709-4.219 15.66-7.197 32.023-8.881 48.743l-4.061-.298c-8.749-.623-16.298 5.91-16.935 14.626l-5.955 81.261c-.673 9.215 6.638 17.08 15.877 17.08h40.195c4.14 0 7.495-3.355 7.495-7.495s-3.355-7.495-7.495-7.495h-40.195a.896.896 0 01-.681-.297.892.892 0 01-.247-.7l5.955-81.26a.802.802 0 01.286-.57.857.857 0 01.606-.201l109.603 8.03a.835.835 0 01.77.893l-5.357 73.138c-.04.543-.498.967-1.042.967h-34.722c-4.14 0-7.495 3.355-7.495 7.495s3.355 7.495 7.495 7.495h34.722c8.356 0 15.382-6.528 15.991-14.862l5.357-73.137c.64-8.701-5.921-16.3-14.624-16.938l-3.785-.278.38-5.186a33.967 33.967 0 016.895-18.146c8.604-11.281 9.973-10.686 53.261-34.849.105-.058.208-.119.311-.183 6.481-4.036 22.016-15.714 26.62-37.084l32.133-118.17a7.51 7.51 0 00.101-.419c7.047-33.393-25.491-46.29-43.297-33.009zm-9.543 11.682c-1.619 3.165 1.656-3.891-20.4 49.113l-2.834-39.302c-.91-12.634 14.841-19.313 23.234-9.811zm38.21 18.042c-.092.338-32.155 118.224-32.228 118.565-3.207 15.173-13.7 23.763-19.776 27.58-43.332 24.172-46.983 24.688-57.714 38.758-9.536 12.505-9.786 24.25-10.306 31.327l-71.854-5.264c1.609-15.77 4.429-31.19 8.402-45.94 4.884-18.132 8.265-23.043 32.538-53.141 7.063-8.402 13.12-10.814 59.13-36.491 9.705-5.417 15.255 1.44 16.683 3.606.013.021.029.038.042.058.027.042.049.085.078.126 1.692 2.601 3.701 7.594-1.86 11.809-12.124 9.189-40.889 31.17-41.178 31.392a7.494 7.494 0 004.557 13.45 7.463 7.463 0 004.545-1.54c.289-.221 29.032-22.184 41.131-31.356 11.185-8.478 10.823-20.373 7.323-28.338 45.243-108.727 33.54-81.367 37.715-89.307 8.015-10.579 26.687-4.842 22.772 14.706zm-195.047-64.524h-20.043V90.819c0-13.93-11.332-25.262-25.262-25.262s-25.262 11.332-25.262 25.262v20.044H210.73c-13.93 0-25.263 11.332-25.263 25.262s11.333 25.262 25.263 25.262h20.044v20.045c-.001 13.93 11.331 25.262 25.261 25.262s25.262-11.332 25.262-25.262v-20.045h20.044c13.93 0 25.263-11.332 25.263-25.262s-11.334-25.261-25.263-25.261zm0 35.533h-27.538a7.494 7.494 0 00-7.495 7.495v27.54c0 5.664-4.608 10.272-10.272 10.272-5.664 0-10.272-4.608-10.272-10.272v-27.54a7.494 7.494 0 00-7.495-7.495h-27.54c-5.665 0-10.273-4.608-10.273-10.272s4.608-10.272 10.273-10.272h27.539a7.494 7.494 0 007.495-7.495V90.819c0-5.664 4.608-10.272 10.272-10.272 5.664 0 10.272 4.608 10.272 10.272v27.539a7.494 7.494 0 007.495 7.495h27.539c5.665 0 10.273 4.608 10.273 10.272 0 5.665-4.608 10.272-10.273 10.272z"></path><path d="M370.268 145.993a7.494 7.494 0 00-8.541 6.277c-7.892 51.672-53.33 90.637-105.692 90.637-58.958 0-106.923-47.965-106.923-106.923S197.077 29.06 256.035 29.06c52.295 0 97.725 38.91 105.67 90.507a7.496 7.496 0 0014.816-2.281C367.472 58.523 316.651 14.07 256.035 14.07c-67.223 0-121.913 54.691-121.913 121.914s54.691 121.913 121.913 121.913a121.867 121.867 0 0079.789-29.734c21.906-18.977 36.368-45.125 40.721-73.63a7.496 7.496 0 00-6.277-8.54z"></path></symbol></defs>
											<use xlink:href="#donation" fill="#F36F8F"></use>
										</svg>