<svg xmlns:xlink="http://www.w3.org/1999/xlink" xmlns="http://www.w3.org/2000/svg" class="icon icon-item__icon icon--green" width="512"  height="512" ><defs><symbol viewBox="0 0 512 512" id="blood" xmlns="http://www.w3.org/2000/svg"><path d="M157.764 434.559c-57.058-28.643-84.583-102.22-48.983-163.75a7.5 7.5 0 00-2.735-10.249c-3.583-2.069-8.173-.85-10.249 2.736-39.956 69.06-9.481 152.18 55.237 184.67a7.501 7.501 0 106.73-13.407z"></path><path d="M469.999 392.714a7.5 7.5 0 007.501-7.501V368.89c0-6.556-5.272-11.895-11.806-11.902h-51.751v-51.804c-.008-6.481-5.348-11.753-11.902-11.753H388.67c-3.972-17.819-10.632-34.895-19.853-50.835-.083-.144-128.44-222.006-128.526-222.148-19.198-33.08-41.612-19.623-50.492-4.18-.656 1.136-128.933 222.861-130.939 226.328-66.43 114.817 10.682 257.11 138.572 268.632a7.504 7.504 0 008.144-6.798 7.501 7.501 0 00-6.798-8.144C80.996 485.676 11.359 354.653 71.845 250.107L200.31 28.057c1.009-1.745 7.094-13.281 13.563-13.078 5.398.145 10.844 8.744 13.567 13.211l128.39 221.918c7.889 13.636 13.738 28.173 17.443 43.323H334.39c-6.555 0-11.894 5.272-11.901 11.806v51.751h-51.81c-6.074.01-11.085 4.703-11.687 10.689-.04.399-.061.804-.061 1.213v67.651c0 6.555 5.272 11.894 11.806 11.901h51.752v7.257c-24.419 21.571-55.547 36.26-90.231 40.215a7.504 7.504 0 00-6.604 8.303c.47 4.116 4.202 7.076 8.303 6.603 31.259-3.565 61.771-15.303 88.531-35.736v25.163c.008 6.481 5.348 11.753 11.901 11.753h67.65c6.556 0 11.895-5.272 11.902-11.806v-51.751h51.804c6.481-.008 11.753-5.348 11.753-11.901v-16.324a7.5 7.5 0 00-7.501-7.501 7.5 7.5 0 00-7.501 7.501v13.224h-51.653c-6.564 0-11.902 5.34-11.902 11.902v51.654H337.49v-51.653c0-6.564-5.341-11.902-11.903-11.902h-51.654v-61.452h51.654c6.564 0 11.903-5.34 11.903-11.902v-51.657h61.451v51.654c0 6.564 5.34 11.902 11.902 11.902h51.654v13.224a7.503 7.503 0 007.502 7.502z"></path></symbol></defs>
											<use xlink:href="#blood" fill="#76D785"></use>
										</svg>